<svg xmlns="http://www.w3.org/2000/svg" xmlns:xlink="http://www.w3.org/1999/xlink" viewBox="0 0 127.1 127.1"><defs><style>.a{fill:#03b674;}.b{fill:#f5f8f5;}.c{fill:url(#a);}.d{fill:url(#b);}.e{fill:url(#c);}.f{fill:url(#d);}.g{fill:url(#e);}.h{fill:url(#f);}.i{fill:url(#g);}.j{fill:url(#h);}.k{fill:url(#i);}.l{fill:url(#j);}.m{fill:url(#k);}.n{fill:url(#l);}.o{fill:url(#m);}.p{fill:url(#n);}.q{fill:#fff;}</style><linearGradient id="a" x1="-303.17" y1="415.52" x2="-302.17" y2="415.52" gradientTransform="matrix(-64.21, -64.21, -64.21, 64.21, 7309.38, -46050.31)" gradientUnits="userSpaceOnUse"><stop offset="0" stop-color="#03b674"/><stop offset="1" stop-color="#03b674"/></linearGradient><linearGradient id="b" x1="-238.87" y1="455.88" x2="-237.87" y2="455.88" gradientTransform="matrix(3.75, -1.11, -1.11, -3.75, 1401.18, 1524.06)" gradientUnits="userSpaceOnUse"><stop offset="0" stop-color="#03b674"/><stop offset="0.05" stop-color="#15bb7e"/><stop offset="0.25" stop-color="#58cda1"/><stop offset="0.44" stop-color="#90dcbf"/><stop offset="0.62" stop-color="#bce8d6"/><stop offset="0.78" stop-color="#dbf1e7"/><stop offset="0.91" stop-color="#eef6f1"/><stop offset="1" stop-color="#f5f8f5"/></linearGradient><linearGradient id="c" x1="-302.25" y1="380.6" x2="-301.25" y2="380.6" gradientTransform="matrix(-5.39, -5.39, -5.39, 5.39, 535.6, -3571.57)" xlink:href="#b"/><linearGradient id="d" x1="-235.56" y1="390.79" x2="-234.56" y2="390.79" gradientTransform="matrix(1.43, -3.71, -3.71, -1.43, 1825.44, -189.53)" xlink:href="#b"/><linearGradient id="e" x1="-338.21" y1="395.51" x2="-337.21" y2="395.51" gradientTransform="matrix(-6.75, 1.56, 1.56, 6.75, -2773.33, -2099.18)" xlink:href="#b"/><linearGradient id="f" x1="-342.6" y1="433.88" x2="-341.61" y2="433.88" gradientTransform="matrix(-2.64, 6.38, 6.38, 2.64, -3582.53, 1042.49)" xlink:href="#b"/><linearGradient id="g" x1="-320.94" y1="379.53" x2="-319.94" y2="379.53" gradientTransform="matrix(-6.39, -2.22, -2.22, 6.39, -1211.27, -3089.68)" gradientUnits="userSpaceOnUse"><stop offset="0" stop-color="#03b674"/><stop offset="0.86" stop-color="#03b674"/><stop offset="1" stop-color="#03b674"/></linearGradient><linearGradient id="h" x1="-346.67" y1="416.55" x2="-345.67" y2="416.55" gradientTransform="matrix(-4.85, 4.61, 4.61, 4.85, -3584.02, -316.17)" xlink:href="#a"/><linearGradient id="i" x1="-315.42" y1="437.99" x2="-314.42" y2="437.99" gradientTransform="matrix(3.14, 12.39, 12.39, -3.14, -4358.91, 5401.13)" gradientUnits="userSpaceOnUse"><stop offset="0" stop-color="#03b674"/><stop offset="0.11" stop-color="#03b674"/><stop offset="1" stop-color="#03b674"/></linearGradient><linearGradient id="j" x1="-306.86" y1="433.97" x2="-305.86" y2="433.97" gradientTransform="matrix(10.17, 15.53, 15.53, -10.17, -3507.28, 9245.37)" gradientUnits="userSpaceOnUse"><stop offset="0" stop-color="#03b674"/><stop offset="0.86" stop-color="#03b674"/><stop offset="1" stop-color="#03b674"/></linearGradient><linearGradient id="k" x1="-270.69" y1="428.52" x2="-269.69" y2="428.52" gradientTransform="matrix(7.4, -4.25, -4.25, -7.4, 3930.32, 2043.3)" xlink:href="#g"/><linearGradient id="l" x1="-270.92" y1="364.62" x2="-269.92" y2="364.62" gradientTransform="matrix(-1.25, -4.44, -4.44, 1.25, 1327.44, -1658.07)" xlink:href="#g"/><linearGradient id="m" x1="-302.82" y1="453" x2="-301.82" y2="453" gradientTransform="matrix(6.21, 5.75, 5.75, -6.21, -712.84, 4569.97)" xlink:href="#b"/><linearGradient id="n" x1="-303.35" y1="422.26" x2="-302.35" y2="422.26" gradientTransform="matrix(58, 58, 58, -58, -6861.84, 42118.15)" xlink:href="#a"/></defs><title>25</title><path class="a" d="M111.1,53.5a56.7,56.7,0,0,0-2.9-9.1,45.5,45.5,0,0,0-4.3-7.8,48.5,48.5,0,0,0-6-7.4,53.1,53.1,0,0,0-7.8-6.4,52.6,52.6,0,0,0-8.5-4.4A50,50,0,0,0,73,15.9l-2.1-.4h-.6l-1.5-.2h-.7l-2-.2H60.8l-2.1.2H58l-1.6.2h-.7l-2.2.4a41.9,41.9,0,0,0-9.1,2.9,45,45,0,0,0-7.8,4.2,43.7,43.7,0,0,0-7.4,6.1A53.1,53.1,0,0,0,22.8,37a52.6,52.6,0,0,0-4.4,8.5A48.9,48.9,0,0,0,15.9,54a50.2,50.2,0,0,0-1,9.5,46.4,46.4,0,0,0,1.1,10,40.3,40.3,0,0,0,2.9,9.1,45.9,45.9,0,0,0,4.2,7.9,53.3,53.3,0,0,0,6.1,7.4,48.7,48.7,0,0,0,16.3,10.7,49.2,49.2,0,0,0,8.5,2.6l2.1.3h.7l1.5.2h5.2a46.5,46.5,0,0,0,10-1,53.7,53.7,0,0,0,9.1-2.9,46.4,46.4,0,0,0,7.9-4.3,60.6,60.6,0,0,0,7.4-6,48.7,48.7,0,0,0,10.7-16.3,50.3,50.3,0,0,0,2.6-8.6,48.6,48.6,0,0,0,.9-9.5A47.1,47.1,0,0,0,111.1,53.5ZM71.6,15.6h0ZM70,15.4l-1.1-.2Zm-2-.3h0ZM60.8,15l-2,.2Zm-3,.3h0Zm-2.3.3h0Zm0,95.8h0Zm1.5.3h0Zm2,.2h0Z"/><path class="b" d="M16.3,83.7a51,51,0,0,1-3-9.6c-.3-1.4-.5-2.8-.7-4.2L.5,71.4a43.4,43.4,0,0,0,.9,5.2A58.8,58.8,0,0,0,5.1,88.5a20,20,0,0,0,1,2.1l11-5.2Z"/><path class="b" d="M116.7,98.4l-10.3-6.7a50.8,50.8,0,0,1-6.6,8.1,37.9,37.9,0,0,1-4.2,3.8l7.6,9.5a46,46,0,0,0,5.2-4.7A61.2,61.2,0,0,0,116.7,98.4Z"/><path class="b" d="M44.4,111.2a69.5,69.5,0,0,1-6.7-3.3l-6.2,10.5a65.2,65.2,0,0,0,8.4,4.1,58.5,58.5,0,0,0,10.3,3.1l2.5-11.9A60.9,60.9,0,0,1,44.4,111.2Z"/><path class="b" d="M110.7,43.3a53.8,53.8,0,0,1,3.1,9.6c.2,1.4.5,2.8.7,4.2l12.1-1.5c-.3-1.7-.5-3.5-.9-5.2a61.1,61.1,0,0,0-3.8-11.9l-.9-2.1-11,5.2C110.2,42.2,110.5,42.8,110.7,43.3Z"/><path class="b" d="M82.6,15.9a42.7,42.7,0,0,1,6.8,3.3L95.5,8.6a80,80,0,0,0-8.3-4.1A72,72,0,0,0,76.9,1.4l-2.6,12A44.4,44.4,0,0,1,82.6,15.9Z"/><path class="a" d="M126.6,55.6l-12.1,1.5h0c-.2-1.4-.5-2.8-.7-4.2a53.8,53.8,0,0,0-3.1-9.6l-.8-1.7h.1l11-5.2a80.5,80.5,0,0,0-4.6-8.1,65,65,0,0,0-18.2-18L95.5,8.6,89.4,19.2h0a42.7,42.7,0,0,0-6.8-3.3,44.4,44.4,0,0,0-8.3-2.5l2.6-12-1-.2a63.3,63.3,0,0,0-25.5.2A60.8,60.8,0,0,0,38.5,5.1a63,63,0,0,0-10.2,5.6c-1.6,1-3,2.1-4.5,3.2l7.7,9.6a49.5,49.5,0,0,0-4.3,3.7,54.1,54.1,0,0,0-6.7,8.3h.1L10.4,28.7h-.1A65,65,0,0,0,4.5,39.9,68.9,68.9,0,0,0,1.2,51.1,63.6,63.6,0,0,0,0,63.5a68.4,68.4,0,0,0,.5,7.9l12.1-1.5h0c.2,1.4.4,2.8.7,4.2a51,51,0,0,0,3,9.6l.8,1.7-11,5.2a50.7,50.7,0,0,0,4.6,8.2,61.2,61.2,0,0,0,7.9,9.6,57.9,57.9,0,0,0,10.2,8.3l2.7,1.7,6.2-10.5h0a69.5,69.5,0,0,0,6.7,3.3,68.3,68.3,0,0,0,9.1,2.7l-.8-.2-2.5,11.9.9.2a63.6,63.6,0,0,0,12.4,1.3,62.6,62.6,0,0,0,13.1-1.4,59,59,0,0,0,11.9-3.8,63.5,63.5,0,0,0,10.3-5.5c1.5-1.1,3-2.1,4.4-3.3l-7.6-9.5a37.9,37.9,0,0,0,4.2-3.8,50.8,50.8,0,0,0,6.6-8.1l10.3,6.7v-.2a60.6,60.6,0,0,0,5.8-11,61.2,61.2,0,0,0,3.3-11.3,62.8,62.8,0,0,0,1.3-12.4A68.4,68.4,0,0,0,126.6,55.6ZM109.3,40.2l-.3-.5Zm-2-3.4a17.4,17.4,0,0,0-1.1-1.8A17.4,17.4,0,0,1,107.3,36.8Zm1.1,1.7-.6-.8ZM35,20.8l-1.8,1.3ZM12.4,68.2v0ZM12.2,65v0Zm.1,1.6v0Zm5.5,20.2.3.5Zm1.9,3.4A17.4,17.4,0,0,1,20.8,92,17.4,17.4,0,0,0,19.7,90.2Zm-1-1.7.5.9ZM92,106.2l1.9-1.3Zm8.9-18.3a50.8,50.8,0,0,1-5.8,7.2,51.1,51.1,0,0,1-6.8,5.5,41.9,41.9,0,0,1-7.2,3.9,41.2,41.2,0,0,1-8.4,2.7,45.6,45.6,0,0,1-9.2.9,49.4,49.4,0,0,1-8.7-.8,55.3,55.3,0,0,1-7.9-2.4,43.2,43.2,0,0,1-7.7-4A50.8,50.8,0,0,1,32,95.1a51.9,51.9,0,0,1-5.6-6.8,50.1,50.1,0,0,1-3.9-7.2,48.1,48.1,0,0,1-2.6-8.4,39.3,39.3,0,0,1-1-9.2,41.4,41.4,0,0,1,.9-8.7,44.5,44.5,0,0,1,2.3-7.9,43.7,43.7,0,0,1,4.1-7.7A44.6,44.6,0,0,1,32,32a46,46,0,0,1,6.8-5.6A41.3,41.3,0,0,1,46,22.5a44.6,44.6,0,0,1,8.3-2.6,40.5,40.5,0,0,1,9.2-1,41.4,41.4,0,0,1,8.7.9,40.1,40.1,0,0,1,7.9,2.3,48.4,48.4,0,0,1,7.8,4.1A44.6,44.6,0,0,1,95.1,32a45.4,45.4,0,0,1,5.5,6.8,35.6,35.6,0,0,1,3.9,7.2,38.4,38.4,0,0,1,2.7,8.3,47,47,0,0,1,.9,9.2,49.4,49.4,0,0,1-.8,8.7,48.4,48.4,0,0,1-2.4,7.9A47.9,47.9,0,0,1,100.9,87.9Zm13.7-29.3v0Zm.1,1.5a.8.8,0,0,0,.1.4A.8.8,0,0,1,114.7,60.1Zm.1,1.5v0Z"/><path class="b" d="M27.2,27.2a49.5,49.5,0,0,1,4.3-3.7l-7.7-9.6c-1.8,1.5-3.5,3.1-5.2,4.7a65.9,65.9,0,0,0-8.2,10.1l10.2,6.7A52.7,52.7,0,0,1,27.2,27.2Z"/><path class="a" d="M103.7,55.1a38.5,38.5,0,0,0-2.5-7.7,38.2,38.2,0,0,0-3.6-6.6,39,39,0,0,0-5.1-6.3,42.6,42.6,0,0,0-6.6-5.3,36.8,36.8,0,0,0-7.1-3.7,36.2,36.2,0,0,0-7.3-2.2,40.9,40.9,0,0,0-8-.8,38.6,38.6,0,0,0-8.4.9,46.1,46.1,0,0,0-7.7,2.4,38.2,38.2,0,0,0-6.6,3.6,39,39,0,0,0-6.3,5.1,41.4,41.4,0,0,0-5.3,6.6,40.8,40.8,0,0,0-3.7,7.2,35.3,35.3,0,0,0-2.2,7.2,42.6,42.6,0,0,0-.8,8,40.2,40.2,0,0,0,.9,8.5,52.8,52.8,0,0,0,2.4,7.7,42.2,42.2,0,0,0,3.6,6.6,43.1,43.1,0,0,0,5.1,6.2,48.6,48.6,0,0,0,6.6,5.4,48.9,48.9,0,0,0,7.2,3.7,42.7,42.7,0,0,0,7.2,2.1,41.1,41.1,0,0,0,6,.8,56,56,0,0,1-5.9-.7,39.2,39.2,0,0,1-7.1-2.2,36.8,36.8,0,0,1-7.1-3.7,46.3,46.3,0,0,1-6.5-5.2,43.1,43.1,0,0,1-5.1-6.2A50.7,50.7,0,0,1,26.3,80a35.3,35.3,0,0,1-2.4-7.6A38.6,38.6,0,0,1,23,64a41.5,41.5,0,0,1,.8-7.9,42.7,42.7,0,0,1,2.1-7.2,46.8,46.8,0,0,1,3.7-7,33.5,33.5,0,0,1,5.3-6.5A42.3,42.3,0,0,1,41,30.3a34.8,34.8,0,0,1,6.6-3.5,32.1,32.1,0,0,1,7.6-2.4,38.4,38.4,0,0,1,8.3-.9,42.6,42.6,0,0,1,8,.8,44.4,44.4,0,0,1,7.1,2.1,36,36,0,0,1,7,3.7,37.4,37.4,0,0,1,6.6,5.3,42.8,42.8,0,0,1,5,6.1,42.2,42.2,0,0,1,3.6,6.6,45,45,0,0,1,2.4,7.6,45.8,45.8,0,0,1,.9,8.3,40.7,40.7,0,0,1-.8,7.9,35.3,35.3,0,0,1-2.2,7.2,42,42,0,0,1-3.6,7,49.4,49.4,0,0,1-5.3,6.6,50.2,50.2,0,0,1-6.2,5,37.2,37.2,0,0,1-6.5,3.6,51.5,51.5,0,0,1-7.6,2.4,46,46,0,0,1-8.4.8,48,48,0,0,0,8.5-.8,43.2,43.2,0,0,0,7.7-2.5,42.2,42.2,0,0,0,6.6-3.6A42.1,42.1,0,0,0,97.9,85.9a43.4,43.4,0,0,0,3.7-7.1,43.8,43.8,0,0,0,2.1-7.3,34.5,34.5,0,0,0,.8-8A46,46,0,0,0,103.7,55.1Z"/><path class="c" d="M25.5,38.7a45.7,45.7,0,0,0-4.1,7.9A44.5,44.5,0,0,0,19,54.7a43.8,43.8,0,0,0-.9,8.8,49.2,49.2,0,0,0,1,9.4,44.1,44.1,0,0,0,2.7,8.5,43.3,43.3,0,0,0,4,7.3,41.2,41.2,0,0,0,5.6,6.9,45.6,45.6,0,0,0,7.3,6,54,54,0,0,0,7.9,4.1,44.2,44.2,0,0,0,8.1,2.3,43.8,43.8,0,0,0,8.8.9,42.3,42.3,0,0,0,9.4-1,52,52,0,0,0,8.5-2.6,43.3,43.3,0,0,0,7.3-4,37.4,37.4,0,0,0,6.9-5.7,41.6,41.6,0,0,0,6-7.3,49.4,49.4,0,0,0,4.1-7.9,45.5,45.5,0,0,0,2.3-8,44.1,44.1,0,0,0,.9-8.9,42,42,0,0,0-1-9.3,49.2,49.2,0,0,0-2.6-8.5,44.2,44.2,0,0,0-4-7.4,45.4,45.4,0,0,0-5.7-6.9,46,46,0,0,0-7.3-5.9,42.4,42.4,0,0,0-7.9-4.1,45.9,45.9,0,0,0-8-2.4,44.1,44.1,0,0,0-8.9-.9,49,49,0,0,0-9.3,1,42,42,0,0,0-8.5,2.7,44.2,44.2,0,0,0-7.4,4,51.3,51.3,0,0,0-6.9,5.6A51,51,0,0,0,25.5,38.7ZM47.1,25.2a44.2,44.2,0,0,1,7.8-2.5,41.9,41.9,0,0,1,8.6-.9,44.7,44.7,0,0,1,8.2.8A38.3,38.3,0,0,1,79,24.8a38.9,38.9,0,0,1,7.3,3.8A34.5,34.5,0,0,1,93,34a39.4,39.4,0,0,1,5.2,6.4,38.4,38.4,0,0,1,6.1,14.5,41.9,41.9,0,0,1,.9,8.6,37.4,37.4,0,0,1-.8,8.2,43.8,43.8,0,0,1-2.1,7.3A40.8,40.8,0,0,1,93,93a38.7,38.7,0,0,1-6.3,5.2,37.5,37.5,0,0,1-6.8,3.7,35.2,35.2,0,0,1-7.8,2.4,41.2,41.2,0,0,1-8.6.9,37.1,37.1,0,0,1-8.1-.8,47.9,47.9,0,0,1-7.4-2.1,46.2,46.2,0,0,1-7.3-3.8A48.9,48.9,0,0,1,34,93a38.7,38.7,0,0,1-5.2-6.3,44.2,44.2,0,0,1-3.6-6.8,41.7,41.7,0,0,1-2.5-7.8,41.2,41.2,0,0,1-.9-8.6,44.5,44.5,0,0,1,.8-8.1A39.2,39.2,0,0,1,24.8,48a46.2,46.2,0,0,1,3.8-7.3A41.7,41.7,0,0,1,34,34a39.4,39.4,0,0,1,6.4-5.2A43.2,43.2,0,0,1,47.1,25.2Z"/><path class="a" d="M97.6,40.8l3-2A45.4,45.4,0,0,0,95.1,32l-2.6,2.5A39,39,0,0,1,97.6,40.8Z"/><path class="b" d="M101.2,47.4l3.3-1.4a35.6,35.6,0,0,0-3.9-7.2l-3,2A38.2,38.2,0,0,1,101.2,47.4Z"/><path class="a" d="M103.7,55.1l3.5-.8a38.4,38.4,0,0,0-2.7-8.3l-3.3,1.4A38.5,38.5,0,0,1,103.7,55.1Z"/><path class="b" d="M92.5,92.5l2.6,2.6a50.8,50.8,0,0,0,5.8-7.2l-3-2A43.2,43.2,0,0,1,92.5,92.5Z"/><path class="b" d="M25.5,48.3l-3.4-1.4a44.5,44.5,0,0,0-2.3,7.9l3.5.7A35.3,35.3,0,0,1,25.5,48.3Z"/><path class="a" d="M23.4,72l-3.5.7a48.1,48.1,0,0,0,2.6,8.4l3.3-1.4A52.8,52.8,0,0,1,23.4,72Z"/><path class="a" d="M23.3,55.5l-3.5-.7a41.4,41.4,0,0,0-.9,8.7h3.6A42.6,42.6,0,0,1,23.3,55.5Z"/><path class="b" d="M22.5,63.5H18.9a39.3,39.3,0,0,0,1,9.2l3.5-.7A40.2,40.2,0,0,1,22.5,63.5Z"/><path class="b" d="M25.8,79.7l-3.3,1.4a50.1,50.1,0,0,0,3.9,7.2l3-2A42.2,42.2,0,0,1,25.8,79.7Z"/><path class="b" d="M34.5,92.5,32,95.1a50.8,50.8,0,0,0,7.2,5.8l1.9-3A48.6,48.6,0,0,1,34.5,92.5Z"/><path class="a" d="M29.4,86.3l-3,2A51.9,51.9,0,0,0,32,95.1l2.5-2.6A43.1,43.1,0,0,1,29.4,86.3Z"/><path class="a" d="M41.1,97.9l-1.9,3a43.2,43.2,0,0,0,7.7,4l1.4-3.3A48.9,48.9,0,0,1,41.1,97.9Z"/><path class="a" d="M29.2,41.1l-3-1.9a43.7,43.7,0,0,0-4.1,7.7l3.4,1.4A40.8,40.8,0,0,1,29.2,41.1Z"/><path class="b" d="M63.5,22.5V18.9a40.5,40.5,0,0,0-9.2,1l.8,3.5A38.6,38.6,0,0,1,63.5,22.5Z"/><path class="b" d="M47.4,25.8,46,22.5a41.3,41.3,0,0,0-7.2,3.9l2,3A38.2,38.2,0,0,1,47.4,25.8Z"/><path class="a" d="M55.1,23.4l-.8-3.5A44.6,44.6,0,0,0,46,22.5l1.4,3.3A46.1,46.1,0,0,1,55.1,23.4Z"/><path class="b" d="M34.5,34.5,32,32a44.6,44.6,0,0,0-5.8,7.2l3,1.9A41.4,41.4,0,0,1,34.5,34.5Z"/><path class="a" d="M40.8,29.4l-2-3A46,46,0,0,0,32,32l2.5,2.5A39,39,0,0,1,40.8,29.4Z"/><path class="b" d="M103.7,55.1a46,46,0,0,1,.8,8.4h3.6a47,47,0,0,0-.9-9.2Z"/><path class="a" d="M103.7,71.5l3.6.7a49.4,49.4,0,0,0,.8-8.7h-3.6A34.5,34.5,0,0,1,103.7,71.5Z"/><path class="b" d="M92.5,34.5,95.1,32a44.6,44.6,0,0,0-7.2-5.8l-2,3A42.6,42.6,0,0,1,92.5,34.5Z"/><path class="b" d="M101.6,78.8l3.3,1.3a48.4,48.4,0,0,0,2.4-7.9l-3.6-.7A43.8,43.8,0,0,1,101.6,78.8Z"/><path class="b" d="M48.3,101.6l-1.4,3.3a55.3,55.3,0,0,0,7.9,2.4l.7-3.6A42.7,42.7,0,0,1,48.3,101.6Z"/><path class="a" d="M85.9,29.2l2-3a48.4,48.4,0,0,0-7.8-4.1l-1.3,3.4A36.8,36.8,0,0,1,85.9,29.2Z"/><path class="b" d="M78.8,25.5l1.3-3.4a40.1,40.1,0,0,0-7.9-2.3l-.7,3.5A36.2,36.2,0,0,1,78.8,25.5Z"/><path class="a" d="M97.9,85.9l3,2a47.9,47.9,0,0,0,4-7.8l-3.3-1.3A43.4,43.4,0,0,1,97.9,85.9Z"/><path class="b" d="M63.5,104.5v3.6a45.6,45.6,0,0,0,9.2-.9l-.7-3.5A48,48,0,0,1,63.5,104.5Z"/><path class="a" d="M71.5,23.3l.7-3.5a41.4,41.4,0,0,0-8.7-.9v3.6A40.9,40.9,0,0,1,71.5,23.3Z"/><path class="a" d="M55.5,103.7l-.7,3.6a49.4,49.4,0,0,0,8.7.8v-3.6A35.6,35.6,0,0,1,55.5,103.7Z"/><path class="a" d="M72,103.7l.7,3.5a41.2,41.2,0,0,0,8.4-2.7l-1.4-3.3A43.2,43.2,0,0,1,72,103.7Z"/><path class="b" d="M79.7,101.2l1.4,3.3a41.9,41.9,0,0,0,7.2-3.9l-2-3A42.2,42.2,0,0,1,79.7,101.2Z"/><path class="a" d="M86.3,97.6l2,3a51.1,51.1,0,0,0,6.8-5.5l-2.6-2.6A43.1,43.1,0,0,1,86.3,97.6Z"/><path class="a" d="M12.8,71.6a.6.6,0,0,1,.1.4A.6.6,0,0,0,12.8,71.6Z"/><path class="a" d="M99.8,99.8a50.8,50.8,0,0,0,6.6-8.1A50.8,50.8,0,0,1,99.8,99.8Z"/><path class="a" d="M48.5,112.6l4.2,1.1Z"/><path class="a" d="M46.5,111.9l1.7.6Z"/><path class="a" d="M114.1,55v0Z"/><path class="b" d="M23.7,31.1c-1.1,1.4-2.1,2.8-3.1,4.3C21.6,33.9,22.6,32.5,23.7,31.1Z"/><path class="b" d="M25.4,29.1,23.9,31Z"/><path class="d" d="M6.9,90.2l-.9-2A59.9,59.9,0,0,1,2.3,76.4a41.7,41.7,0,0,1-.9-5.1H.5a43.4,43.4,0,0,0,.9,5.2A58.8,58.8,0,0,0,5.1,88.5a20,20,0,0,0,1,2.1Z"/><path class="e" d="M107.8,107.8a57,57,0,0,1-5.2,4.6l.6.7a46,46,0,0,0,5.2-4.7,61.2,61.2,0,0,0,8.3-10l-.8-.6A65.6,65.6,0,0,1,107.8,107.8Z"/><path class="f" d="M40.2,121.7a62.7,62.7,0,0,1-8.2-4.1l-.5.8a65.2,65.2,0,0,0,8.4,4.1,58.5,58.5,0,0,0,10.3,3.1l.2-.9A59.7,59.7,0,0,1,40.2,121.7Z"/><path class="g" d="M121.1,38.9a66.4,66.4,0,0,1,3.7,11.7c.3,1.7.6,3.4.8,5.1h1c-.3-1.7-.5-3.5-.9-5.2a61.1,61.1,0,0,0-3.8-11.9l-.9-2.1-.8.4Z"/><path class="h" d="M86.8,5.4a56.6,56.6,0,0,1,8.2,4l.5-.8a80,80,0,0,0-8.3-4.1A72,72,0,0,0,76.9,1.4l-.2.9A65.8,65.8,0,0,1,86.8,5.4Z"/><path class="i" d="M1.4,71.3a65.3,65.3,0,0,1-.5-7.8A60.8,60.8,0,0,1,2.1,51.3,70.8,70.8,0,0,1,5.4,40.2a66.6,66.6,0,0,1,5.7-10.9h.1l-.8-.5h-.1A65,65,0,0,0,4.5,39.9,68.9,68.9,0,0,0,1.2,51.1,63.6,63.6,0,0,0,0,63.5a68.4,68.4,0,0,0,.5,7.9Z"/><path class="j" d="M32,117.6,29.3,116a60.7,60.7,0,0,1-10-8.2,58.8,58.8,0,0,1-7.8-9.5,54.3,54.3,0,0,1-4.6-8.1l-.8.4a50.7,50.7,0,0,0,4.6,8.2,61.2,61.2,0,0,0,7.9,9.6,57.9,57.9,0,0,0,10.2,8.3l2.7,1.7Z"/><path class="k" d="M102.6,112.4c-1.4,1.1-2.8,2.2-4.3,3.2a65.9,65.9,0,0,1-10.1,5.5,67.4,67.4,0,0,1-11.8,3.7,60,60,0,0,1-12.9,1.3,60.8,60.8,0,0,1-12.2-1.2l-.9-.2-.2.9.9.2a63.6,63.6,0,0,0,12.4,1.3,62.6,62.6,0,0,0,13.1-1.4,59,59,0,0,0,11.9-3.8,63.5,63.5,0,0,0,10.3-5.5c1.5-1.1,3-2.1,4.4-3.3Z"/><path class="l" d="M126.6,55.6h-1a51.1,51.1,0,0,1,.5,7.8,62.6,62.6,0,0,1-1.2,12.3,58,58,0,0,1-3.2,11A66.2,66.2,0,0,1,116,97.7h-.1l.8.6v-.2a60.6,60.6,0,0,0,5.8-11,61.2,61.2,0,0,0,3.3-11.3,62.8,62.8,0,0,0,1.3-12.4A68.4,68.4,0,0,0,126.6,55.6Z"/><path class="m" d="M95,9.4l2.7,1.7a61.4,61.4,0,0,1,10.1,8.2,59.8,59.8,0,0,1,7.8,9.5,69.4,69.4,0,0,1,4.6,8l.8-.4a80.5,80.5,0,0,0-4.6-8.1,65,65,0,0,0-18.2-18L95.5,8.6Z"/><path class="n" d="M24.4,14.7a44.8,44.8,0,0,1,4.4-3.2A51.8,51.8,0,0,1,38.9,6,59,59,0,0,1,50.6,2.3,61.4,61.4,0,0,1,63.5.9,62.6,62.6,0,0,1,75.8,2.1l.9.2.2-.9-1-.2a63.3,63.3,0,0,0-25.5.2A60.8,60.8,0,0,0,38.5,5.1a63,63,0,0,0-10.2,5.6c-1.6,1-3,2.1-4.5,3.2Z"/><path class="o" d="M19.3,19.3a44.1,44.1,0,0,1,5.1-4.6l-.6-.8c-1.8,1.5-3.5,3.1-5.2,4.7a65.9,65.9,0,0,0-8.2,10.1l.8.5A54.8,54.8,0,0,1,19.3,19.3Z"/><path class="b" d="M74.4,117.1a2.6,2.6,0,0,1,2.6-2.6,2.5,2.5,0,0,1,2.6,2.6,2.6,2.6,0,0,1-2.6,2.6A2.6,2.6,0,0,1,74.4,117.1Z"/><path class="b" d="M48.2,10a2.6,2.6,0,0,1,2.6-2.6,2.6,2.6,0,1,1,0,5.2A2.6,2.6,0,0,1,48.2,10Z"/><path class="b" d="M6.8,53.8a2.6,2.6,0,1,1,2.5,2.6A2.6,2.6,0,0,1,6.8,53.8Z"/><path class="b" d="M21.2,101.7a2.6,2.6,0,0,1,2.6-2.6,2.6,2.6,0,0,1,0,5.2A2.6,2.6,0,0,1,21.2,101.7Z"/><path class="b" d="M114.4,76.2a2.6,2.6,0,0,1,2.6-2.6,2.6,2.6,0,0,1,0,5.2A2.6,2.6,0,0,1,114.4,76.2Z"/><path class="b" d="M101.6,26.8a2.6,2.6,0,1,1,2.6,2.6A2.6,2.6,0,0,1,101.6,26.8Z"/><path class="p" d="M97.9,85.9a43.7,43.7,0,0,0,3.7-7.1,46.8,46.8,0,0,0,2.1-7.3,35.6,35.6,0,0,0,.8-8,40,40,0,0,0-.9-8.4,36.1,36.1,0,0,0-2.4-7.7,42.2,42.2,0,0,0-3.6-6.6,13,13,0,0,0-1-1.5l-.3-.4-.8-1.1-.4-.4L94,36.1h-.1l-1.4-1.5L91,33.1h0l-.2-.2-1.3-1.1-.5-.4-1.1-.8c-.1-.1-.3-.2-.4-.4l-1.6-1a37,37,0,0,0-7.1-3.7,38.3,38.3,0,0,0-7.3-2.2,42.6,42.6,0,0,0-8-.8,40,40,0,0,0-8.4.9,52.8,52.8,0,0,0-7.7,2.4,42.2,42.2,0,0,0-6.6,3.6,50.2,50.2,0,0,0-6.3,5.1,46.5,46.5,0,0,0-5.3,6.6,35.1,35.1,0,0,0-3.7,7.2,37.3,37.3,0,0,0-2.2,7.2,43.4,43.4,0,0,0-.8,8,40.2,40.2,0,0,0,.9,8.5,52.8,52.8,0,0,0,2.4,7.7,42.2,42.2,0,0,0,3.6,6.6l1,1.5.4.4.8,1,.3.5L33,90.9l1.5,1.6a39.5,39.5,0,0,0,13.8,9.1,45.6,45.6,0,0,0,7.2,2.1,36.2,36.2,0,0,0,8,.8,40.2,40.2,0,0,0,8.5-.9,36.1,36.1,0,0,0,7.7-2.4,35.3,35.3,0,0,0,6.6-3.6,33,33,0,0,0,6.2-5.1A33.9,33.9,0,0,0,97.9,85.9Zm-1-46.2-.2-.3Zm-.8-1a3.5,3.5,0,0,1-.5-.8A3.5,3.5,0,0,0,96.1,38.7Zm-1-1.4-1-1.2Zm-4.3-4.4-1.2-1.1Zm-1.9-1.6-.7-.6Zm-1.6-1.2-.3-.2ZM30.1,87.3l.3.3Zm.8,1.1.6.7ZM32,89.7l1,1.2Z"/><path class="a" d="M102.8,55.3a45,45,0,0,0-2.4-7.6,39.8,39.8,0,0,0-3.5-6.4,42.8,42.8,0,0,0-5-6.1,39,39,0,0,0-13.5-8.9,40.5,40.5,0,0,0-7-2.1l-1.7-.3h-.6l-1.2-.2H57.1l-1.8.4a37.3,37.3,0,0,0-7.6,2.3,40.3,40.3,0,0,0-6.4,3.6,32.5,32.5,0,0,0-6.1,5,41,41,0,0,0-5.3,6.4,40.8,40.8,0,0,0-5.7,14.1,39.7,39.7,0,0,0-.8,7.8,37.7,37.7,0,0,0,.9,8.3,38.3,38.3,0,0,0,2.3,7.5,37.2,37.2,0,0,0,3.6,6.5,36.1,36.1,0,0,0,5,6.1,35.5,35.5,0,0,0,6.4,5.2,36,36,0,0,0,7,3.7,41.6,41.6,0,0,0,7.1,2.1l1.7.3h6.1a37.7,37.7,0,0,0,8.3-.9,46.9,46.9,0,0,0,7.5-2.4,36.8,36.8,0,0,0,6.5-3.5,41.6,41.6,0,0,0,6.1-5,36.2,36.2,0,0,0,5.2-6.5,36,36,0,0,0,3.7-7,40.5,40.5,0,0,0,2.1-7,41.5,41.5,0,0,0,.8-7.9A36.8,36.8,0,0,0,102.8,55.3ZM70.2,24h0Zm-1.3-.2h0Zm-1.7-.2h0Zm-8.4.1h0Zm-1.9.3h0Zm0,79.1h0Zm1.3.2h0Zm1.6.2h0Z"/><path class="q" d="M41,72.6c11.3-8.3,14.6-11.1,14.6-14.5s-2.2-3.6-4.5-3.6a9.8,9.8,0,0,0-7.4,3.2l-3.3-3.9A14.1,14.1,0,0,1,51,49.3c5.9,0,10.5,3.3,10.5,8.8s-3.9,8.8-11.2,14H61.7v5.1H41Z"/><path class="q" d="M68.3,69.7a9.9,9.9,0,0,0,7.3,2.9c3.3,0,5.1-1.8,5.1-4.1s-1.8-4.2-4.9-4.2A7.8,7.8,0,0,0,70,66.6l-4.1-1.2V49.7H84.8v5.1H71.6v6.8a10.1,10.1,0,0,1,6.2-2.2,8.6,8.6,0,0,1,8.9,8.9c0,5.8-4.4,9.4-11.1,9.4-4.8,0-8.2-1.5-10.6-4.1Z"/></svg>